<svg xmlns="http://www.w3.org/2000/svg" xmlns:xlink="http://www.w3.org/1999/xlink" width="500" zoomAndPan="magnify" viewBox="0 0 375 374.999991" height="500" preserveAspectRatio="xMidYMid meet" version="1.0"><defs><g/><clipPath id="7f3774f36c"><path d="M 82.972656 128 L 292.222656 128 L 292.222656 231 L 82.972656 231 Z M 82.972656 128 " clip-rule="nonzero"/></clipPath></defs><g clip-path="url(#7f3774f36c)"><path fill="#ffffff" d="M 280.769531 208.199219 C 280.285156 207.089844 280.492188 207.367188 279.105469 206.878906 C 275.007812 205.210938 268.964844 202.710938 266.324219 199.585938 C 259.519531 191.390625 275.007812 178.820312 281.394531 172.640625 C 283.6875 170.488281 291.8125 163.75 292.023438 160.832031 C 290.5625 159.167969 289.382812 159.375 286.464844 159.445312 C 277.507812 159.722656 252.226562 164.445312 243.613281 166.042969 C 215.347656 171.320312 178.191406 179.097656 150.199219 185.765625 L 104.570312 196.183594 C 109.363281 196.738281 118.738281 195.628906 124.15625 195.488281 C 130.40625 195.28125 137.351562 195.003906 143.394531 194.449219 L 181.039062 193.335938 C 180.550781 193.40625 180.132812 193.476562 179.507812 193.613281 C 178.398438 193.753906 177.632812 193.960938 176.523438 194.101562 C 162.773438 196.460938 87.277344 206.808594 82.972656 208.339844 C 90.402344 211.601562 237.917969 211.324219 268.964844 209.171875 C 271.949219 208.964844 278.757812 209.519531 280.769531 208.199219 Z M 163.257812 144.789062 C 168.328125 143.679688 169.578125 139.234375 184.164062 137.011719 C 184.371094 132.425781 184.855469 129.648438 180.828125 128.539062 C 175.480469 127.078125 166.175781 130.203125 163.882812 133.675781 C 162.773438 135.34375 163.257812 142.289062 163.257812 144.789062 Z M 183.050781 227.160156 C 175.691406 227.160156 167.980469 227.160156 160.6875 227.4375 C 157.078125 227.644531 142.003906 227.507812 139.921875 229.105469 C 145.339844 230.910156 175.066406 230.769531 183.050781 230.769531 C 196.664062 230.839844 235.070312 231.050781 239.722656 228.964844 C 236.320312 227.019531 197.011719 227.089844 183.050781 227.160156 Z M 143.535156 163.890625 C 147.839844 163.125 209.445312 146.109375 209.929688 145.691406 C 207.847656 141.179688 200.136719 136.734375 193.050781 137.21875 C 186.453125 137.707031 180.203125 142.152344 175.410156 144.929688 C 172.773438 146.457031 145.339844 162.152344 143.535156 163.890625 Z M 270.421875 219.035156 C 269.378906 217.921875 267.78125 217.992188 266.046875 217.851562 C 240.488281 215.421875 111.722656 215.214844 108.945312 218.824219 C 116.03125 222.714844 255.351562 221.605469 270.421875 219.035156 Z M 131.308594 179.515625 C 133.117188 180.210938 229.792969 163.332031 242.292969 161.945312 C 241.460938 158.542969 235.695312 152.082031 233.613281 150.414062 C 229.375 147.011719 224.722656 145.902344 217.984375 147.21875 C 208.125 149.164062 197.21875 153.679688 188.261719 157.082031 C 178.675781 160.761719 168.882812 164.515625 159.578125 168.195312 C 150.0625 171.945312 140.6875 175.972656 131.308594 179.515625 Z M 131.308594 179.515625 " fill-opacity="1" fill-rule="evenodd"/></g><g fill="#ffffff" fill-opacity="1"><g transform="translate(122.539992, 264.001828)"><g><path d="M 4.171875 -3.765625 L 4.171875 -6.296875 L 5.640625 -6.296875 L 5.640625 0 L 4.171875 0 L 4.171875 -2.515625 L 2.0625 -2.515625 L 2.0625 0 L 0.59375 0 L 0.59375 -6.296875 L 2.0625 -6.296875 L 2.0625 -3.765625 Z M 4.171875 -3.765625 "/></g></g></g><g fill="#ffffff" fill-opacity="1"><g transform="translate(129.083033, 264.001828)"><g><path d="M 2.28125 -5.078125 C 3.039062 -5.078125 3.585938 -4.890625 3.921875 -4.515625 C 4.265625 -4.148438 4.4375 -3.644531 4.4375 -3 L 4.4375 0 L 3.0625 0 L 3.0625 -0.609375 C 2.9375 -0.390625 2.753906 -0.210938 2.515625 -0.078125 C 2.285156 0.046875 2.015625 0.109375 1.703125 0.109375 C 1.421875 0.109375 1.164062 0.046875 0.9375 -0.078125 C 0.71875 -0.210938 0.539062 -0.394531 0.40625 -0.625 C 0.269531 -0.863281 0.203125 -1.144531 0.203125 -1.46875 C 0.203125 -1.9375 0.34375 -2.300781 0.625 -2.5625 C 0.90625 -2.832031 1.34375 -2.96875 1.9375 -2.96875 C 2.125 -2.96875 2.316406 -2.960938 2.515625 -2.953125 C 2.722656 -2.941406 2.90625 -2.929688 3.0625 -2.921875 L 3.0625 -3.03125 C 3.0625 -3.3125 2.976562 -3.53125 2.8125 -3.6875 C 2.65625 -3.84375 2.421875 -3.921875 2.109375 -3.921875 C 1.878906 -3.921875 1.648438 -3.894531 1.421875 -3.84375 C 1.203125 -3.789062 1 -3.726562 0.8125 -3.65625 L 0.6875 -4.8125 C 0.914062 -4.894531 1.164062 -4.957031 1.4375 -5 C 1.707031 -5.050781 1.988281 -5.078125 2.28125 -5.078125 Z M 2.171875 -1.03125 C 2.765625 -1.03125 3.0625 -1.382812 3.0625 -2.09375 L 3.0625 -2.109375 C 2.945312 -2.128906 2.828125 -2.140625 2.703125 -2.140625 C 2.585938 -2.148438 2.453125 -2.15625 2.296875 -2.15625 C 2.023438 -2.15625 1.828125 -2.113281 1.703125 -2.03125 C 1.585938 -1.945312 1.53125 -1.804688 1.53125 -1.609375 C 1.53125 -1.441406 1.585938 -1.300781 1.703125 -1.1875 C 1.816406 -1.082031 1.972656 -1.03125 2.171875 -1.03125 Z M 2.171875 -1.03125 "/></g></g></g><g fill="#ffffff" fill-opacity="1"><g transform="translate(134.285067, 264.001828)"><g><path d="M 3.03125 -5.0625 C 3.09375 -5.0625 3.164062 -5.054688 3.25 -5.046875 C 3.34375 -5.035156 3.429688 -5.019531 3.515625 -5 L 3.390625 -3.65625 C 3.316406 -3.675781 3.226562 -3.6875 3.125 -3.6875 C 3.019531 -3.6875 2.925781 -3.6875 2.84375 -3.6875 C 2.550781 -3.6875 2.320312 -3.550781 2.15625 -3.28125 C 1.988281 -3.019531 1.90625 -2.65625 1.90625 -2.1875 L 1.90625 0 L 0.5 0 L 0.5 -4.96875 L 1.90625 -4.96875 L 1.90625 -4.34375 C 2.144531 -4.820312 2.519531 -5.0625 3.03125 -5.0625 Z M 3.03125 -5.0625 "/></g></g></g><g fill="#ffffff" fill-opacity="1"><g transform="translate(138.128092, 264.001828)"><g><path d="M 3.328125 0 L 1.828125 0 L 0.109375 -4.96875 L 1.578125 -4.96875 L 2.5625 -1.609375 L 2.578125 -1.609375 L 3.578125 -4.96875 L 5.046875 -4.96875 Z M 3.328125 0 "/></g></g></g><g fill="#ffffff" fill-opacity="1"><g transform="translate(143.582125, 264.001828)"><g><path d="M 4.609375 -2.0625 L 1.6875 -2.0625 C 1.738281 -1.707031 1.863281 -1.445312 2.0625 -1.28125 C 2.257812 -1.125 2.507812 -1.046875 2.8125 -1.046875 C 3 -1.046875 3.203125 -1.070312 3.421875 -1.125 C 3.640625 -1.1875 3.832031 -1.273438 4 -1.390625 L 4.296875 -0.328125 C 4.054688 -0.171875 3.800781 -0.0625 3.53125 0 C 3.257812 0.0625 2.976562 0.09375 2.6875 0.09375 C 2.21875 0.09375 1.800781 -0.0078125 1.4375 -0.21875 C 1.082031 -0.4375 0.800781 -0.738281 0.59375 -1.125 C 0.382812 -1.507812 0.28125 -1.96875 0.28125 -2.5 C 0.28125 -3 0.375 -3.441406 0.5625 -3.828125 C 0.757812 -4.210938 1.035156 -4.515625 1.390625 -4.734375 C 1.742188 -4.953125 2.160156 -5.0625 2.640625 -5.0625 C 3.054688 -5.0625 3.421875 -4.96875 3.734375 -4.78125 C 4.054688 -4.601562 4.304688 -4.351562 4.484375 -4.03125 C 4.660156 -3.707031 4.75 -3.335938 4.75 -2.921875 C 4.75 -2.765625 4.734375 -2.609375 4.703125 -2.453125 C 4.679688 -2.304688 4.648438 -2.175781 4.609375 -2.0625 Z M 2.59375 -3.921875 C 2.070312 -3.921875 1.769531 -3.585938 1.6875 -2.921875 L 3.40625 -2.921875 C 3.394531 -3.253906 3.316406 -3.503906 3.171875 -3.671875 C 3.035156 -3.835938 2.84375 -3.921875 2.59375 -3.921875 Z M 2.59375 -3.921875 "/></g></g></g><g fill="#ffffff" fill-opacity="1"><g transform="translate(148.928161, 264.001828)"><g><path d="M 2 0.09375 C 1.644531 0.09375 1.320312 0.0625 1.03125 0 C 0.75 -0.0507812 0.472656 -0.132812 0.203125 -0.25 L 0.390625 -1.4375 C 0.648438 -1.300781 0.921875 -1.203125 1.203125 -1.140625 C 1.484375 -1.078125 1.75 -1.046875 2 -1.046875 C 2.175781 -1.046875 2.328125 -1.070312 2.453125 -1.125 C 2.578125 -1.1875 2.632812 -1.289062 2.625 -1.4375 C 2.625 -1.570312 2.5625 -1.679688 2.4375 -1.765625 C 2.3125 -1.847656 2.09375 -1.9375 1.78125 -2.03125 C 1.238281 -2.164062 0.847656 -2.347656 0.609375 -2.578125 C 0.367188 -2.804688 0.25 -3.125 0.25 -3.53125 C 0.257812 -3.875 0.347656 -4.160156 0.515625 -4.390625 C 0.691406 -4.617188 0.921875 -4.789062 1.203125 -4.90625 C 1.492188 -5.019531 1.816406 -5.078125 2.171875 -5.078125 C 2.453125 -5.078125 2.722656 -5.046875 2.984375 -4.984375 C 3.253906 -4.921875 3.507812 -4.847656 3.75 -4.765625 L 3.5625 -3.609375 C 3.363281 -3.710938 3.132812 -3.789062 2.875 -3.84375 C 2.625 -3.90625 2.382812 -3.9375 2.15625 -3.9375 C 1.789062 -3.9375 1.609375 -3.816406 1.609375 -3.578125 C 1.609375 -3.460938 1.660156 -3.359375 1.765625 -3.265625 C 1.878906 -3.179688 2.085938 -3.097656 2.390625 -3.015625 C 2.953125 -2.847656 3.359375 -2.640625 3.609375 -2.390625 C 3.859375 -2.148438 3.984375 -1.835938 3.984375 -1.453125 C 3.984375 -1.109375 3.894531 -0.820312 3.71875 -0.59375 C 3.550781 -0.363281 3.316406 -0.191406 3.015625 -0.078125 C 2.710938 0.0351562 2.375 0.09375 2 0.09375 Z M 2 0.09375 "/></g></g></g><g fill="#ffffff" fill-opacity="1"><g transform="translate(153.428192, 264.001828)"><g><path d="M 2.359375 0.109375 C 1.859375 0.109375 1.472656 -0.0234375 1.203125 -0.296875 C 0.929688 -0.578125 0.796875 -0.988281 0.796875 -1.53125 L 0.796875 -3.8125 L 0.234375 -3.8125 L 0.234375 -4.4375 L 0.71875 -5 L 1.625 -6.046875 L 2.171875 -6.046875 L 2.171875 -4.96875 L 3.46875 -4.96875 L 3.46875 -3.8125 L 2.171875 -3.8125 L 2.171875 -1.703125 C 2.171875 -1.515625 2.210938 -1.367188 2.296875 -1.265625 C 2.378906 -1.160156 2.5 -1.109375 2.65625 -1.109375 C 2.863281 -1.109375 3.09375 -1.160156 3.34375 -1.265625 L 3.59375 -0.171875 C 3.382812 -0.078125 3.171875 -0.0078125 2.953125 0.03125 C 2.742188 0.0820312 2.546875 0.109375 2.359375 0.109375 Z M 2.359375 0.109375 "/></g></g></g><g fill="#ffffff" fill-opacity="1"><g transform="translate(157.55922, 264.001828)"><g><path d="M 1.921875 -5.53125 L 0.484375 -5.53125 L 0.484375 -6.671875 L 1.921875 -6.671875 Z M 1.90625 0 L 0.5 0 L 0.5 -4.96875 L 1.90625 -4.96875 Z M 1.90625 0 "/></g></g></g><g fill="#ffffff" fill-opacity="1"><g transform="translate(160.259233, 264.001828)"><g><path d="M 3.265625 -5.078125 C 3.773438 -5.078125 4.171875 -4.914062 4.453125 -4.59375 C 4.742188 -4.269531 4.890625 -3.796875 4.890625 -3.171875 L 4.890625 0 L 3.515625 0 L 3.515625 -2.984375 C 3.515625 -3.535156 3.273438 -3.8125 2.796875 -3.8125 C 2.597656 -3.8125 2.414062 -3.742188 2.25 -3.609375 C 2.09375 -3.472656 1.972656 -3.289062 1.890625 -3.0625 L 1.890625 0 L 0.5 0 L 0.5 -4.96875 L 1.890625 -4.96875 L 1.890625 -4.34375 C 2.035156 -4.550781 2.222656 -4.722656 2.453125 -4.859375 C 2.679688 -5.003906 2.953125 -5.078125 3.265625 -5.078125 Z M 3.265625 -5.078125 "/></g></g></g><g fill="#ffffff" fill-opacity="1"><g transform="translate(165.911272, 264.001828)"><g><path d="M 2.09375 -1.3125 L 2.90625 -1.3125 C 3.582031 -1.320312 4.070312 -1.207031 4.375 -0.96875 C 4.6875 -0.726562 4.84375 -0.394531 4.84375 0.03125 C 4.84375 0.507812 4.632812 0.894531 4.21875 1.1875 C 3.800781 1.488281 3.179688 1.640625 2.359375 1.640625 C 1.710938 1.640625 1.210938 1.53125 0.859375 1.3125 C 0.515625 1.101562 0.34375 0.789062 0.34375 0.375 C 0.34375 0.1875 0.394531 0.0195312 0.5 -0.125 C 0.613281 -0.269531 0.742188 -0.394531 0.890625 -0.5 C 0.597656 -0.664062 0.453125 -0.925781 0.453125 -1.28125 C 0.453125 -1.46875 0.503906 -1.632812 0.609375 -1.78125 C 0.710938 -1.9375 0.835938 -2.0625 0.984375 -2.15625 C 0.628906 -2.457031 0.453125 -2.875 0.453125 -3.40625 C 0.453125 -3.914062 0.628906 -4.320312 0.984375 -4.625 C 1.347656 -4.925781 1.84375 -5.078125 2.46875 -5.078125 C 2.84375 -5.078125 3.148438 -5.019531 3.390625 -4.90625 L 4.515625 -5.296875 L 4.796875 -4.359375 L 4.203125 -4.234375 C 4.296875 -4.140625 4.367188 -4.019531 4.421875 -3.875 C 4.484375 -3.726562 4.515625 -3.570312 4.515625 -3.40625 C 4.515625 -2.882812 4.335938 -2.46875 3.984375 -2.15625 C 3.628906 -1.851562 3.132812 -1.703125 2.5 -1.703125 C 2.375 -1.703125 2.253906 -1.707031 2.140625 -1.71875 C 2.035156 -1.726562 1.929688 -1.742188 1.828125 -1.765625 C 1.753906 -1.703125 1.71875 -1.625 1.71875 -1.53125 C 1.71875 -1.445312 1.75 -1.390625 1.8125 -1.359375 C 1.882812 -1.328125 1.976562 -1.3125 2.09375 -1.3125 Z M 2.484375 -4.046875 C 2.035156 -4.046875 1.8125 -3.832031 1.8125 -3.40625 C 1.8125 -3.195312 1.867188 -3.03125 1.984375 -2.90625 C 2.097656 -2.789062 2.265625 -2.734375 2.484375 -2.734375 C 2.703125 -2.734375 2.867188 -2.789062 2.984375 -2.90625 C 3.097656 -3.03125 3.15625 -3.195312 3.15625 -3.40625 C 3.15625 -3.613281 3.097656 -3.769531 2.984375 -3.875 C 2.878906 -3.988281 2.710938 -4.046875 2.484375 -4.046875 Z M 2.46875 0.5625 C 2.800781 0.5625 3.050781 0.519531 3.21875 0.4375 C 3.382812 0.363281 3.46875 0.242188 3.46875 0.078125 C 3.46875 -0.078125 3.398438 -0.179688 3.265625 -0.234375 C 3.128906 -0.285156 2.925781 -0.3125 2.65625 -0.3125 L 1.859375 -0.3125 C 1.710938 -0.164062 1.640625 -0.0234375 1.640625 0.109375 C 1.640625 0.296875 1.71875 0.414062 1.875 0.46875 C 2.03125 0.53125 2.226562 0.5625 2.46875 0.5625 Z M 2.46875 0.5625 "/></g></g></g><g fill="#ffffff" fill-opacity="1"><g transform="translate(174.011319, 264.001828)"><g><path d="M 3.703125 -2.328125 L 3.703125 -3.421875 L 5.578125 -3.421875 L 5.578125 -0.625 C 5.265625 -0.414062 4.914062 -0.238281 4.53125 -0.09375 C 4.144531 0.0390625 3.734375 0.109375 3.296875 0.109375 C 2.722656 0.109375 2.210938 -0.0195312 1.765625 -0.28125 C 1.328125 -0.550781 0.988281 -0.925781 0.75 -1.40625 C 0.507812 -1.894531 0.390625 -2.472656 0.390625 -3.140625 C 0.390625 -3.847656 0.519531 -4.441406 0.78125 -4.921875 C 1.050781 -5.410156 1.414062 -5.78125 1.875 -6.03125 C 2.332031 -6.28125 2.84375 -6.40625 3.40625 -6.40625 C 3.71875 -6.40625 4.035156 -6.363281 4.359375 -6.28125 C 4.679688 -6.207031 5 -6.082031 5.3125 -5.90625 L 4.84375 -4.703125 C 4.625 -4.835938 4.390625 -4.9375 4.140625 -5 C 3.890625 -5.070312 3.660156 -5.109375 3.453125 -5.109375 C 2.984375 -5.109375 2.601562 -4.945312 2.3125 -4.625 C 2.019531 -4.3125 1.875 -3.816406 1.875 -3.140625 C 1.875 -2.523438 2.003906 -2.039062 2.265625 -1.6875 C 2.523438 -1.34375 2.882812 -1.171875 3.34375 -1.171875 C 3.570312 -1.171875 3.742188 -1.1875 3.859375 -1.21875 C 3.984375 -1.257812 4.101562 -1.3125 4.21875 -1.375 L 4.21875 -2.328125 Z M 3.703125 -2.328125 "/></g></g></g><g fill="#ffffff" fill-opacity="1"><g transform="translate(180.266356, 264.001828)"><g><path d="M 1.90625 0 L 0.515625 0 L 0.515625 -6.640625 L 1.90625 -6.640625 Z M 1.90625 0 "/></g></g></g><g fill="#ffffff" fill-opacity="1"><g transform="translate(182.975373, 264.001828)"><g><path d="M 2.6875 0.109375 C 2.21875 0.109375 1.800781 0 1.4375 -0.21875 C 1.082031 -0.4375 0.800781 -0.738281 0.59375 -1.125 C 0.382812 -1.507812 0.28125 -1.96875 0.28125 -2.5 C 0.28125 -3.007812 0.378906 -3.457031 0.578125 -3.84375 C 0.785156 -4.226562 1.070312 -4.53125 1.4375 -4.75 C 1.800781 -4.96875 2.21875 -5.078125 2.6875 -5.078125 C 3.15625 -5.078125 3.566406 -4.96875 3.921875 -4.75 C 4.285156 -4.539062 4.566406 -4.242188 4.765625 -3.859375 C 4.972656 -3.472656 5.078125 -3.019531 5.078125 -2.5 C 5.078125 -1.988281 4.976562 -1.535156 4.78125 -1.140625 C 4.582031 -0.753906 4.300781 -0.445312 3.9375 -0.21875 C 3.582031 0 3.164062 0.109375 2.6875 0.109375 Z M 2.6875 -1.109375 C 2.976562 -1.109375 3.210938 -1.226562 3.390625 -1.46875 C 3.578125 -1.71875 3.671875 -2.0625 3.671875 -2.5 C 3.671875 -2.914062 3.578125 -3.242188 3.390625 -3.484375 C 3.210938 -3.734375 2.976562 -3.859375 2.6875 -3.859375 C 2.394531 -3.859375 2.15625 -3.738281 1.96875 -3.5 C 1.78125 -3.269531 1.6875 -2.9375 1.6875 -2.5 C 1.6875 -2.070312 1.78125 -1.734375 1.96875 -1.484375 C 2.15625 -1.234375 2.394531 -1.109375 2.6875 -1.109375 Z M 2.6875 -1.109375 "/></g></g></g><g fill="#ffffff" fill-opacity="1"><g transform="translate(188.654406, 264.001828)"><g><path d="M 3.265625 0.109375 C 3.003906 0.109375 2.753906 0.0625 2.515625 -0.03125 C 2.285156 -0.132812 2.082031 -0.289062 1.90625 -0.5 L 1.90625 0 L 0.515625 0 L 0.515625 -6.640625 L 1.90625 -6.640625 L 1.90625 -4.46875 C 2.082031 -4.6875 2.285156 -4.84375 2.515625 -4.9375 C 2.742188 -5.03125 2.988281 -5.078125 3.25 -5.078125 C 3.632812 -5.078125 3.976562 -4.972656 4.28125 -4.765625 C 4.582031 -4.566406 4.816406 -4.273438 4.984375 -3.890625 C 5.160156 -3.503906 5.25 -3.039062 5.25 -2.5 C 5.25 -1.957031 5.160156 -1.488281 4.984375 -1.09375 C 4.816406 -0.707031 4.582031 -0.410156 4.28125 -0.203125 C 3.976562 0.00390625 3.640625 0.109375 3.265625 0.109375 Z M 2.890625 -1.109375 C 3.179688 -1.109375 3.410156 -1.222656 3.578125 -1.453125 C 3.753906 -1.691406 3.84375 -2.039062 3.84375 -2.5 C 3.84375 -2.945312 3.753906 -3.285156 3.578125 -3.515625 C 3.410156 -3.742188 3.179688 -3.859375 2.890625 -3.859375 C 2.679688 -3.859375 2.5 -3.789062 2.34375 -3.65625 C 2.195312 -3.53125 2.085938 -3.363281 2.015625 -3.15625 C 1.941406 -2.945312 1.90625 -2.71875 1.90625 -2.46875 C 1.90625 -2.226562 1.941406 -2.003906 2.015625 -1.796875 C 2.097656 -1.597656 2.210938 -1.429688 2.359375 -1.296875 C 2.503906 -1.171875 2.679688 -1.109375 2.890625 -1.109375 Z M 2.890625 -1.109375 "/></g></g></g><g fill="#ffffff" fill-opacity="1"><g transform="translate(194.495441, 264.001828)"><g><path d="M 2.28125 -5.078125 C 3.039062 -5.078125 3.585938 -4.890625 3.921875 -4.515625 C 4.265625 -4.148438 4.4375 -3.644531 4.4375 -3 L 4.4375 0 L 3.0625 0 L 3.0625 -0.609375 C 2.9375 -0.390625 2.753906 -0.210938 2.515625 -0.078125 C 2.285156 0.046875 2.015625 0.109375 1.703125 0.109375 C 1.421875 0.109375 1.164062 0.046875 0.9375 -0.078125 C 0.71875 -0.210938 0.539062 -0.394531 0.40625 -0.625 C 0.269531 -0.863281 0.203125 -1.144531 0.203125 -1.46875 C 0.203125 -1.9375 0.34375 -2.300781 0.625 -2.5625 C 0.90625 -2.832031 1.34375 -2.96875 1.9375 -2.96875 C 2.125 -2.96875 2.316406 -2.960938 2.515625 -2.953125 C 2.722656 -2.941406 2.90625 -2.929688 3.0625 -2.921875 L 3.0625 -3.03125 C 3.0625 -3.3125 2.976562 -3.53125 2.8125 -3.6875 C 2.65625 -3.84375 2.421875 -3.921875 2.109375 -3.921875 C 1.878906 -3.921875 1.648438 -3.894531 1.421875 -3.84375 C 1.203125 -3.789062 1 -3.726562 0.8125 -3.65625 L 0.6875 -4.8125 C 0.914062 -4.894531 1.164062 -4.957031 1.4375 -5 C 1.707031 -5.050781 1.988281 -5.078125 2.28125 -5.078125 Z M 2.171875 -1.03125 C 2.765625 -1.03125 3.0625 -1.382812 3.0625 -2.09375 L 3.0625 -2.109375 C 2.945312 -2.128906 2.828125 -2.140625 2.703125 -2.140625 C 2.585938 -2.148438 2.453125 -2.15625 2.296875 -2.15625 C 2.023438 -2.15625 1.828125 -2.113281 1.703125 -2.03125 C 1.585938 -1.945312 1.53125 -1.804688 1.53125 -1.609375 C 1.53125 -1.441406 1.585938 -1.300781 1.703125 -1.1875 C 1.816406 -1.082031 1.972656 -1.03125 2.171875 -1.03125 Z M 2.171875 -1.03125 "/></g></g></g><g fill="#ffffff" fill-opacity="1"><g transform="translate(199.697473, 264.001828)"><g><path d="M 1.90625 0 L 0.515625 0 L 0.515625 -6.640625 L 1.90625 -6.640625 Z M 1.90625 0 "/></g></g></g><g fill="#ffffff" fill-opacity="1"><g transform="translate(205.196508, 264.001828)"><g><path d="M 2.015625 -2.703125 L 2.015625 -1.21875 L 4.96875 -1.21875 L 4.96875 0 L 0.59375 0 L 0.59375 -6.296875 L 4.90625 -6.296875 L 4.90625 -5.078125 L 2.015625 -5.078125 L 2.015625 -3.859375 L 4.546875 -3.859375 L 4.546875 -2.703125 Z M 2.015625 -2.703125 "/></g></g></g><g fill="#ffffff" fill-opacity="1"><g transform="translate(210.803546, 264.001828)"><g><path d="M 3.46875 -2.53125 L 5.09375 0 L 3.5625 0 L 2.59375 -1.578125 L 1.640625 0 L 0.109375 0 L 1.734375 -2.546875 L 0.203125 -4.96875 L 1.765625 -4.96875 L 2.59375 -3.484375 L 3.4375 -4.96875 L 4.984375 -4.96875 Z M 3.46875 -2.53125 "/></g></g></g><g fill="#ffffff" fill-opacity="1"><g transform="translate(216.320576, 264.001828)"><g><path d="M 2.6875 0.09375 C 2.21875 0.09375 1.800781 -0.00390625 1.4375 -0.203125 C 1.082031 -0.410156 0.800781 -0.707031 0.59375 -1.09375 C 0.382812 -1.488281 0.28125 -1.953125 0.28125 -2.484375 C 0.28125 -3.015625 0.382812 -3.472656 0.59375 -3.859375 C 0.8125 -4.253906 1.101562 -4.554688 1.46875 -4.765625 C 1.832031 -4.972656 2.238281 -5.078125 2.6875 -5.078125 C 2.957031 -5.078125 3.21875 -5.039062 3.46875 -4.96875 C 3.726562 -4.894531 3.976562 -4.773438 4.21875 -4.609375 L 3.75 -3.53125 C 3.582031 -3.644531 3.425781 -3.726562 3.28125 -3.78125 C 3.132812 -3.832031 2.972656 -3.859375 2.796875 -3.859375 C 2.460938 -3.859375 2.191406 -3.738281 1.984375 -3.5 C 1.785156 -3.269531 1.6875 -2.9375 1.6875 -2.5 C 1.6875 -2.039062 1.785156 -1.691406 1.984375 -1.453125 C 2.191406 -1.222656 2.460938 -1.109375 2.796875 -1.109375 C 3.117188 -1.109375 3.441406 -1.210938 3.765625 -1.421875 L 4.21875 -0.34375 C 3.957031 -0.175781 3.703125 -0.0625 3.453125 0 C 3.210938 0.0625 2.957031 0.09375 2.6875 0.09375 Z M 2.6875 0.09375 "/></g></g></g><g fill="#ffffff" fill-opacity="1"><g transform="translate(220.982613, 264.001828)"><g><path d="M 4.609375 -2.0625 L 1.6875 -2.0625 C 1.738281 -1.707031 1.863281 -1.445312 2.0625 -1.28125 C 2.257812 -1.125 2.507812 -1.046875 2.8125 -1.046875 C 3 -1.046875 3.203125 -1.070312 3.421875 -1.125 C 3.640625 -1.1875 3.832031 -1.273438 4 -1.390625 L 4.296875 -0.328125 C 4.054688 -0.171875 3.800781 -0.0625 3.53125 0 C 3.257812 0.0625 2.976562 0.09375 2.6875 0.09375 C 2.21875 0.09375 1.800781 -0.0078125 1.4375 -0.21875 C 1.082031 -0.4375 0.800781 -0.738281 0.59375 -1.125 C 0.382812 -1.507812 0.28125 -1.96875 0.28125 -2.5 C 0.28125 -3 0.375 -3.441406 0.5625 -3.828125 C 0.757812 -4.210938 1.035156 -4.515625 1.390625 -4.734375 C 1.742188 -4.953125 2.160156 -5.0625 2.640625 -5.0625 C 3.054688 -5.0625 3.421875 -4.96875 3.734375 -4.78125 C 4.054688 -4.601562 4.304688 -4.351562 4.484375 -4.03125 C 4.660156 -3.707031 4.75 -3.335938 4.75 -2.921875 C 4.75 -2.765625 4.734375 -2.609375 4.703125 -2.453125 C 4.679688 -2.304688 4.648438 -2.175781 4.609375 -2.0625 Z M 2.59375 -3.921875 C 2.070312 -3.921875 1.769531 -3.585938 1.6875 -2.921875 L 3.40625 -2.921875 C 3.394531 -3.253906 3.316406 -3.503906 3.171875 -3.671875 C 3.035156 -3.835938 2.84375 -3.921875 2.59375 -3.921875 Z M 2.59375 -3.921875 "/></g></g></g><g fill="#ffffff" fill-opacity="1"><g transform="translate(226.328651, 264.001828)"><g><path d="M 1.90625 0 L 0.515625 0 L 0.515625 -6.640625 L 1.90625 -6.640625 Z M 1.90625 0 "/></g></g></g><g fill="#ffffff" fill-opacity="1"><g transform="translate(229.037673, 264.001828)"><g><path d="M 1.90625 0 L 0.515625 0 L 0.515625 -6.640625 L 1.90625 -6.640625 Z M 1.90625 0 "/></g></g></g><g fill="#ffffff" fill-opacity="1"><g transform="translate(231.746696, 264.001828)"><g><path d="M 4.609375 -2.0625 L 1.6875 -2.0625 C 1.738281 -1.707031 1.863281 -1.445312 2.0625 -1.28125 C 2.257812 -1.125 2.507812 -1.046875 2.8125 -1.046875 C 3 -1.046875 3.203125 -1.070312 3.421875 -1.125 C 3.640625 -1.1875 3.832031 -1.273438 4 -1.390625 L 4.296875 -0.328125 C 4.054688 -0.171875 3.800781 -0.0625 3.53125 0 C 3.257812 0.0625 2.976562 0.09375 2.6875 0.09375 C 2.21875 0.09375 1.800781 -0.0078125 1.4375 -0.21875 C 1.082031 -0.4375 0.800781 -0.738281 0.59375 -1.125 C 0.382812 -1.507812 0.28125 -1.96875 0.28125 -2.5 C 0.28125 -3 0.375 -3.441406 0.5625 -3.828125 C 0.757812 -4.210938 1.035156 -4.515625 1.390625 -4.734375 C 1.742188 -4.953125 2.160156 -5.0625 2.640625 -5.0625 C 3.054688 -5.0625 3.421875 -4.96875 3.734375 -4.78125 C 4.054688 -4.601562 4.304688 -4.351562 4.484375 -4.03125 C 4.660156 -3.707031 4.75 -3.335938 4.75 -2.921875 C 4.75 -2.765625 4.734375 -2.609375 4.703125 -2.453125 C 4.679688 -2.304688 4.648438 -2.175781 4.609375 -2.0625 Z M 2.59375 -3.921875 C 2.070312 -3.921875 1.769531 -3.585938 1.6875 -2.921875 L 3.40625 -2.921875 C 3.394531 -3.253906 3.316406 -3.503906 3.171875 -3.671875 C 3.035156 -3.835938 2.84375 -3.921875 2.59375 -3.921875 Z M 2.59375 -3.921875 "/></g></g></g><g fill="#ffffff" fill-opacity="1"><g transform="translate(237.092734, 264.001828)"><g><path d="M 3.265625 -5.078125 C 3.773438 -5.078125 4.171875 -4.914062 4.453125 -4.59375 C 4.742188 -4.269531 4.890625 -3.796875 4.890625 -3.171875 L 4.890625 0 L 3.515625 0 L 3.515625 -2.984375 C 3.515625 -3.535156 3.273438 -3.8125 2.796875 -3.8125 C 2.597656 -3.8125 2.414062 -3.742188 2.25 -3.609375 C 2.09375 -3.472656 1.972656 -3.289062 1.890625 -3.0625 L 1.890625 0 L 0.5 0 L 0.5 -4.96875 L 1.890625 -4.96875 L 1.890625 -4.34375 C 2.035156 -4.550781 2.222656 -4.722656 2.453125 -4.859375 C 2.679688 -5.003906 2.953125 -5.078125 3.265625 -5.078125 Z M 3.265625 -5.078125 "/></g></g></g><g fill="#ffffff" fill-opacity="1"><g transform="translate(242.744776, 264.001828)"><g><path d="M 2.6875 0.09375 C 2.21875 0.09375 1.800781 -0.00390625 1.4375 -0.203125 C 1.082031 -0.410156 0.800781 -0.707031 0.59375 -1.09375 C 0.382812 -1.488281 0.28125 -1.953125 0.28125 -2.484375 C 0.28125 -3.015625 0.382812 -3.472656 0.59375 -3.859375 C 0.8125 -4.253906 1.101562 -4.554688 1.46875 -4.765625 C 1.832031 -4.972656 2.238281 -5.078125 2.6875 -5.078125 C 2.957031 -5.078125 3.21875 -5.039062 3.46875 -4.96875 C 3.726562 -4.894531 3.976562 -4.773438 4.21875 -4.609375 L 3.75 -3.53125 C 3.582031 -3.644531 3.425781 -3.726562 3.28125 -3.78125 C 3.132812 -3.832031 2.972656 -3.859375 2.796875 -3.859375 C 2.460938 -3.859375 2.191406 -3.738281 1.984375 -3.5 C 1.785156 -3.269531 1.6875 -2.9375 1.6875 -2.5 C 1.6875 -2.039062 1.785156 -1.691406 1.984375 -1.453125 C 2.191406 -1.222656 2.460938 -1.109375 2.796875 -1.109375 C 3.117188 -1.109375 3.441406 -1.210938 3.765625 -1.421875 L 4.21875 -0.34375 C 3.957031 -0.175781 3.703125 -0.0625 3.453125 0 C 3.210938 0.0625 2.957031 0.09375 2.6875 0.09375 Z M 2.6875 0.09375 "/></g></g></g><g fill="#ffffff" fill-opacity="1"><g transform="translate(247.406813, 264.001828)"><g><path d="M 4.609375 -2.0625 L 1.6875 -2.0625 C 1.738281 -1.707031 1.863281 -1.445312 2.0625 -1.28125 C 2.257812 -1.125 2.507812 -1.046875 2.8125 -1.046875 C 3 -1.046875 3.203125 -1.070312 3.421875 -1.125 C 3.640625 -1.1875 3.832031 -1.273438 4 -1.390625 L 4.296875 -0.328125 C 4.054688 -0.171875 3.800781 -0.0625 3.53125 0 C 3.257812 0.0625 2.976562 0.09375 2.6875 0.09375 C 2.21875 0.09375 1.800781 -0.0078125 1.4375 -0.21875 C 1.082031 -0.4375 0.800781 -0.738281 0.59375 -1.125 C 0.382812 -1.507812 0.28125 -1.96875 0.28125 -2.5 C 0.28125 -3 0.375 -3.441406 0.5625 -3.828125 C 0.757812 -4.210938 1.035156 -4.515625 1.390625 -4.734375 C 1.742188 -4.953125 2.160156 -5.0625 2.640625 -5.0625 C 3.054688 -5.0625 3.421875 -4.96875 3.734375 -4.78125 C 4.054688 -4.601562 4.304688 -4.351562 4.484375 -4.03125 C 4.660156 -3.707031 4.75 -3.335938 4.75 -2.921875 C 4.75 -2.765625 4.734375 -2.609375 4.703125 -2.453125 C 4.679688 -2.304688 4.648438 -2.175781 4.609375 -2.0625 Z M 2.59375 -3.921875 C 2.070312 -3.921875 1.769531 -3.585938 1.6875 -2.921875 L 3.40625 -2.921875 C 3.394531 -3.253906 3.316406 -3.503906 3.171875 -3.671875 C 3.035156 -3.835938 2.84375 -3.921875 2.59375 -3.921875 Z M 2.59375 -3.921875 "/></g></g></g><g fill="#ffffff" fill-opacity="1"><g transform="translate(130.969639, 251.360139)"><g><path d="M 4.1875 -5.84375 L 4.1875 0 L 1.109375 0 L 1.109375 -14.28125 L 6.59375 -14.28125 C 8.425781 -14.28125 9.34375 -13.3125 9.34375 -11.375 L 9.34375 -9.71875 C 9.34375 -8.539062 8.921875 -7.789062 8.078125 -7.46875 C 8.816406 -7.195312 9.1875 -6.59375 9.1875 -5.65625 L 9.1875 0 L 6.09375 0 L 6.09375 -5.40625 C 6.09375 -5.695312 5.953125 -5.84375 5.671875 -5.84375 Z M 4.1875 -12.1875 L 4.1875 -8.015625 L 5.828125 -8.015625 C 5.941406 -8.015625 6.039062 -8.054688 6.125 -8.140625 C 6.207031 -8.234375 6.25 -8.335938 6.25 -8.453125 L 6.25 -11.75 C 6.25 -11.863281 6.207031 -11.960938 6.125 -12.046875 C 6.039062 -12.140625 5.941406 -12.1875 5.828125 -12.1875 Z M 4.1875 -12.1875 "/></g></g></g><g fill="#ffffff" fill-opacity="1"><g transform="translate(149.25206, 251.360139)"><g><path d="M 6.78125 -14.5 C 8.601562 -14.5 9.515625 -13.53125 9.515625 -11.59375 L 9.515625 0 L 6.421875 0 L 6.421875 -4.796875 L 4.1875 -4.796875 L 4.1875 0 L 1.109375 0 L 1.109375 -11.59375 C 1.109375 -13.53125 2.019531 -14.5 3.84375 -14.5 Z M 4.1875 -7.171875 L 6.421875 -7.171875 L 6.421875 -11.96875 C 6.421875 -12.082031 6.378906 -12.179688 6.296875 -12.265625 C 6.222656 -12.359375 6.125 -12.40625 6 -12.40625 L 4.609375 -12.40625 C 4.492188 -12.40625 4.394531 -12.359375 4.3125 -12.265625 C 4.226562 -12.179688 4.1875 -12.082031 4.1875 -11.96875 Z M 4.1875 -7.171875 "/></g></g></g><g fill="#ffffff" fill-opacity="1"><g transform="translate(168.020204, 251.360139)"><g><path d="M 4.1875 -2.609375 L 7.578125 -2.609375 L 7.578125 0 L 1.109375 0 L 1.109375 -14.28125 L 4.1875 -14.28125 Z M 4.1875 -2.609375 "/></g></g></g><g fill="#ffffff" fill-opacity="1"><g transform="translate(184.006506, 251.360139)"><g><path d="M 6.671875 -14.28125 C 8.492188 -14.28125 9.40625 -13.3125 9.40625 -11.375 L 9.40625 -8.515625 C 9.40625 -6.578125 8.492188 -5.609375 6.671875 -5.609375 L 4.171875 -5.609375 L 4.171875 0 L 1.078125 0 L 1.078125 -14.28125 Z M 6.3125 -8.171875 L 6.3125 -11.71875 C 6.3125 -11.84375 6.269531 -11.945312 6.1875 -12.03125 C 6.113281 -12.125 6.015625 -12.171875 5.890625 -12.171875 L 4.171875 -12.171875 L 4.171875 -7.734375 L 5.890625 -7.734375 C 6.015625 -7.734375 6.113281 -7.773438 6.1875 -7.859375 C 6.269531 -7.953125 6.3125 -8.054688 6.3125 -8.171875 Z M 6.3125 -8.171875 "/></g></g></g><g fill="#ffffff" fill-opacity="1"><g transform="translate(201.913608, 251.360139)"><g><path d="M 8.765625 -7.640625 L 8.765625 -5.28125 L 1.234375 -5.28125 L 1.234375 -7.640625 Z M 8.765625 -7.640625 "/></g></g></g><g fill="#ffffff" fill-opacity="1"><g transform="translate(219.931099, 251.360139)"><g><path d="M 4.1875 -14.28125 L 4.1875 0 L 1.109375 0 L 1.109375 -14.28125 Z M 4.1875 -14.28125 "/></g></g></g><g fill="#ffffff" fill-opacity="1"><g transform="translate(233.378404, 251.360139)"><g><path d="M 4.1875 -2.5625 L 7.609375 -2.5625 L 7.609375 0 L 1.109375 0 L 1.109375 -14.28125 L 7.609375 -14.28125 L 7.609375 -11.765625 L 4.1875 -11.765625 L 4.1875 -8.40625 L 7.390625 -8.40625 L 7.390625 -5.984375 L 4.1875 -5.984375 Z M 4.1875 -2.5625 "/></g></g></g></svg>